<?xml version="1.0" encoding="UTF-8"?>
<svg version="1.1" xmlns="http://www.w3.org/2000/svg" width="1024" height="1024">
<path d="M0 0 C337.92 0 675.84 0 1024 0 C1024 337.92 1024 675.84 1024 1024 C686.08 1024 348.16 1024 0 1024 C0 686.08 0 348.16 0 0 Z " fill="#000000" transform="translate(0,0)"/>
<path d="M0 0 C21.84429163 -0.35086469 43.68811687 -0.61513639 65.53465748 -0.77718258 C75.67925687 -0.85443478 85.82210268 -0.95969004 95.96557617 -1.1315918 C104.80988196 -1.28140468 113.65291775 -1.37794182 122.49845713 -1.41132742 C127.18019097 -1.43083712 131.8582928 -1.47645103 136.53885841 -1.58595085 C140.95190388 -1.68834853 145.35985091 -1.71907168 149.77397156 -1.69661522 C151.38702904 -1.70071772 153.00026965 -1.73024579 154.61229515 -1.78808212 C166.42259897 -2.19076604 166.42259897 -2.19076604 170.71554351 1.45819545 C173.96033051 5.03057911 176.50652288 8.97461213 178.91629255 13.14267337 C180.4831145 15.82799231 182.24378866 18.37350298 184 20.9375 C184.63550781 21.90429688 185.27101563 22.87109375 185.92578125 23.8671875 C188.30542903 27.46130712 190.74048314 31.01406486 193.1875 34.5625 C197.30332249 40.53375717 201.40714369 46.51297413 205.5 52.5 C216.03591189 67.92003523 216.03591189 67.92003523 226.6796875 83.265625 C234.40100917 94.30943167 242.0115131 105.41157424 249.4206543 116.66796875 C253.130947 122.28428375 256.98180612 127.76082442 260.96435547 133.18701172 C264.52677216 138.10979478 267.91187379 143.15224305 271.3125 148.1875 C272.8104011 150.39897784 274.30958794 152.60958337 275.80859375 154.8203125 C276.52772949 155.8815332 277.24686523 156.94275391 277.98779297 158.03613281 C280.60284533 161.88795709 283.23415716 165.728326 285.875 169.5625 C286.30530518 170.18729248 286.73561035 170.81208496 287.17895508 171.45581055 C288.02634999 172.68567089 288.87392177 173.91540939 289.72167969 175.14501953 C291.98406647 178.42798644 294.24171576 181.71421035 296.5 185 C299.35471011 189.15286603 302.20994179 193.30537166 305.06640625 197.45703125 C305.56785156 198.18599609 306.06929687 198.91496094 306.5859375 199.66601562 C307.54800257 201.06457319 308.51023389 202.46301641 309.47265625 203.86132812 C311.33149387 206.56383461 313.18051298 209.27076946 315 212 C318.74888398 210.75037201 319.64619319 209.22103014 322.0625 206.125 C325.25774361 202.11670413 328.51929973 198.26849608 332 194.5 C336.11378909 190.0301488 339.97087297 185.40955107 343.78515625 180.68359375 C346.66480887 177.19449084 349.70693876 173.87003079 352.75390625 170.52734375 C355.06187598 167.93037607 357.25555863 165.26595987 359.4375 162.5625 C363.29708603 157.79003797 367.37199991 153.26890891 371.52734375 148.75390625 C374.74709519 145.16792716 377.75905176 141.43298508 380.78515625 137.68359375 C382.95632827 135.05291443 385.20241357 132.52057576 387.5 130 C390.61458668 126.58260628 393.5918662 123.0947765 396.5 119.5 C400.11149134 115.03579543 403.88660694 110.76997886 407.75390625 106.52734375 C410.06187598 103.93037607 412.25555863 101.26595987 414.4375 98.5625 C418.29708603 93.79003797 422.37199991 89.26890891 426.52734375 84.75390625 C429.74709519 81.16792716 432.75905176 77.43298508 435.78515625 73.68359375 C438.66480887 70.19449084 441.70693876 66.87003079 444.75390625 63.52734375 C447.06187598 60.93037607 449.25555863 58.26595987 451.4375 55.5625 C454.51336588 51.75912497 457.68753166 48.09917348 461 44.5 C465.01529746 40.13313271 468.79137958 35.63188173 472.51953125 31.01953125 C479.84207531 22.10563116 487.49859181 13.45608166 495.29296875 4.953125 C497.15564357 2.90725172 497.15564357 2.90725172 499 0 C501.13870239 -0.36076355 501.13870239 -0.36076355 503.81689453 -0.34057617 C504.81778107 -0.34034958 505.8186676 -0.34012299 506.84988403 -0.33988953 C508.47493362 -0.31666374 508.47493362 -0.31666374 510.1328125 -0.29296875 C511.23978485 -0.28872391 512.3467572 -0.28447906 513.48727417 -0.28010559 C517.0334271 -0.26327214 520.57901797 -0.2256108 524.125 -0.1875 C526.52473139 -0.17245922 528.92447167 -0.15876977 531.32421875 -0.14648438 C537.21633859 -0.11335338 543.10812915 -0.06310777 549 0 C547.22496727 3.80133042 544.80942027 6.54928164 541.9375 9.5625 C537.56548957 14.23762698 533.45200392 19.04584273 529.43359375 24.03125 C524.95799437 29.49105021 520.28165266 34.77926309 515.64648438 40.10351562 C513.06362591 43.07855189 510.49943086 46.0694406 507.9375 49.0625 C507.20116333 49.92258667 507.20116333 49.92258667 506.44995117 50.80004883 C505.46114797 51.95530518 504.47245951 53.11065976 503.48388672 54.26611328 C500.4937937 57.75996663 497.50024355 61.25086021 494.50634766 64.74145508 C491.96529167 67.70463683 489.42724353 70.67030706 486.89453125 73.640625 C482.42459061 78.87776795 477.9470481 84.09432474 473.3125 89.1875 C469.46148995 93.42708043 465.85156045 97.82932112 462.25 102.28125 C459.35642111 105.77765782 456.30650817 109.11508132 453.25 112.46875 C450.92137947 115.0884481 448.70437053 117.7751531 446.5 120.5 C442.88850866 124.96420457 439.11339306 129.23002114 435.24609375 133.47265625 C432.93812402 136.06962393 430.74444137 138.73404013 428.5625 141.4375 C424.70291397 146.20996203 420.62800009 150.73109109 416.47265625 155.24609375 C413.25290481 158.83207284 410.24094824 162.56701492 407.21484375 166.31640625 C404.33519113 169.80550916 401.29306124 173.12996921 398.24609375 176.47265625 C395.93812402 179.06962393 393.74444137 181.73404013 391.5625 184.4375 C387.70291397 189.20996203 383.62800009 193.73109109 379.47265625 198.24609375 C376.25290481 201.83207284 373.24094824 205.56701492 370.21484375 209.31640625 C367.33519113 212.80550916 364.29306124 216.12996921 361.24609375 219.47265625 C358.1585799 222.94678053 355.26500307 226.56649531 352.34765625 230.18359375 C349.0345236 234.15825039 345.51576502 237.92153344 341.96875 241.6875 C339.81841082 243.92111081 339.81841082 243.92111081 339 247 C340.15433506 249.27337553 340.15433506 249.27337553 341.9453125 251.65625 C342.60345947 252.58638916 343.26160645 253.51652832 343.93969727 254.47485352 C344.66084717 255.47315186 345.38199707 256.4714502 346.125 257.5 C347.6165504 259.60239297 349.10742716 261.705264 350.59765625 263.80859375 C351.34547363 264.85772949 352.09329102 265.90686523 352.86376953 266.98779297 C355.81279239 271.14608372 358.69417451 275.34831671 361.5625 279.5625 C362.07796387 280.31740723 362.59342773 281.07231445 363.12451172 281.85009766 C366.02767079 286.10227171 368.9253535 290.35817932 371.82421875 294.61328125 C373.1327673 296.53388496 374.44136102 298.4544579 375.75 300.375 C376.3891333 301.31303467 377.0282666 302.25106934 377.68676758 303.2175293 C381.71485323 309.12570283 385.76560609 315.01688041 389.84375 320.890625 C396.99684808 331.20559977 404.07782583 341.57050806 411.16308594 351.93212891 C415.04866074 357.61325796 418.94440992 363.28728395 422.84692383 368.95678711 C425.2414314 372.4370111 427.63051435 375.92081395 430.01171875 379.41015625 C435.88241994 388.01162853 441.79100899 396.58440998 447.75 405.125 C455.59508959 416.37386456 463.30616293 427.71138198 471.00439453 439.06103516 C477.6367497 448.82862649 484.28262647 458.58719702 491.078125 468.2421875 C494.4061455 473.01776163 497.68153626 477.82945308 500.96533203 482.63549805 C504.42626125 487.7007173 507.89537564 492.76010887 511.375 497.8125 C514.43856564 502.26090336 517.49050722 506.71688955 520.52734375 511.18359375 C527.35406125 521.22393091 534.23339923 531.22119829 541.21533203 541.15429688 C544.88574132 546.3842363 548.47606464 551.65321172 551.9921875 556.98828125 C555.01666303 561.52499455 558.12330775 566.00487737 561.2331543 570.48339844 C561.90084839 571.44874512 561.90084839 571.44874512 562.58203125 572.43359375 C562.97624268 573.00134521 563.3704541 573.56909668 563.77661133 574.15405273 C565.26012798 576.39250203 566.62366289 578.69444024 568 581 C545.97329456 581.28045572 523.94688389 581.49199598 501.91875458 581.62174606 C491.69034607 581.68359618 481.46304753 581.76789877 471.23535156 581.90527344 C462.3196636 582.0249685 453.40477945 582.10231816 444.48831034 582.12906194 C439.76757693 582.1446939 435.04914278 582.18135787 430.32914734 582.26876068 C425.88294756 582.35042385 421.43998535 582.37530282 416.99310684 582.35729218 C415.36437986 582.36058487 413.73554108 582.38434691 412.10746384 582.4304657 C407.21137661 582.56231642 402.72022737 582.49554896 398 581 C394.32417137 577.4291353 392.21748852 573.57713216 390 569 C389.09400861 567.61179753 388.16719799 566.2363377 387.19921875 564.890625 C386.78542969 564.28992188 386.37164063 563.68921875 385.9453125 563.0703125 C385.53023437 562.46960938 385.11515625 561.86890625 384.6875 561.25 C383.74346572 559.88022478 382.79945602 558.51043262 381.85546875 557.140625 C381.38286621 556.45548828 380.91026367 555.77035156 380.42333984 555.06445312 C378.11202959 551.71206213 375.80624118 548.35587922 373.5 545 C372.58336098 543.66664766 371.66669428 542.33331435 370.75 541 C365.25 533 359.75 525 354.25 517 C353.79657227 516.3404834 353.34314453 515.6809668 352.87597656 515.00146484 C351.95599947 513.66328666 351.03607791 512.32507029 350.11621094 510.98681641 C347.87563946 507.72729952 345.63422307 504.46837199 343.390625 501.2109375 C337.42066029 492.54027447 331.48373487 483.84748219 325.55664062 475.14746094 C320.49431581 467.71910562 315.40958302 460.30650738 310.31054688 452.90332031 C308.03844939 449.60353044 305.76942087 446.30163099 303.5 443 C302.58334714 441.66665718 301.66668049 440.33332383 300.75 439 C273.24999999 398.99999999 273.24999999 398.99999999 271.87451172 396.99926758 C270.9595003 395.66835665 270.04446131 394.33746466 269.12939453 393.0065918 C266.81217419 389.63635196 264.49546068 386.26576567 262.1796875 382.89453125 C261.71473877 382.21793457 261.24979004 381.54133789 260.77075195 380.84423828 C259.84945867 379.50314982 258.92871157 378.16168596 258.00854492 376.81982422 C255.79305667 373.59226339 253.56525809 370.3747164 251.30859375 367.17578125 C250.88723145 366.57596436 250.46586914 365.97614746 250.03173828 365.3581543 C248.88531363 363.72850499 247.7338413 362.10240996 246.58203125 360.4765625 C245 358 245 358 245 356 C237.23237833 363.6849874 230.07467625 371.81696528 223.21484375 380.31640625 C220.33519113 383.80550916 217.29306124 387.12996921 214.24609375 390.47265625 C211.93812402 393.06962393 209.74444137 395.73404013 207.5625 398.4375 C203.70291397 403.20996203 199.62800009 407.73109109 195.47265625 412.24609375 C192.25290481 415.83207284 189.24094824 419.56701492 186.21484375 423.31640625 C184.04367173 425.94708557 181.79758643 428.47942424 179.5 431 C176.38541332 434.41739372 173.4081338 437.9052235 170.5 441.5 C166.88850866 445.96420457 163.11339306 450.23002114 159.24609375 454.47265625 C156.93812402 457.06962393 154.74444137 459.73404013 152.5625 462.4375 C148.70291397 467.20996203 144.62800009 471.73109109 140.47265625 476.24609375 C137.25290481 479.83207284 134.24094824 483.56701492 131.21484375 487.31640625 C129.04367173 489.94708557 126.79758643 492.47942424 124.5 495 C121.38541332 498.41739372 118.4081338 501.9052235 115.5 505.5 C111.88850866 509.96420457 108.11339306 514.23002114 104.24609375 518.47265625 C101.93812402 521.06962393 99.74444137 523.73404013 97.5625 526.4375 C93.70291397 531.20996203 89.62800009 535.73109109 85.47265625 540.24609375 C82.25290481 543.83207284 79.24094824 547.56701492 76.21484375 551.31640625 C74.04367173 553.94708557 71.79758643 556.47942424 69.5 559 C65.55497814 563.33124778 61.82325922 567.80382008 58.140625 572.359375 C57.43421875 573.23078125 56.7278125 574.1021875 56 575 C55.37101807 576.03237793 54.74203613 577.06475586 54.09399414 578.12841797 C52.29920709 580.25948455 51.33359264 580.92744087 48.58169556 581.52600098 C45.48966228 581.69546033 42.45096663 581.67390257 39.35546875 581.5859375 C38.2305452 581.57744781 37.10562164 581.56895813 35.9466095 581.56021118 C32.35925899 581.52666693 28.77416926 581.45137855 25.1875 581.375 C22.7532877 581.34490205 20.31904012 581.31752596 17.88476562 581.29296875 C11.9224078 581.22687211 5.96136541 581.12651101 0 581 C0.40715744 580.52645584 0.81431488 580.05291168 1.23381042 579.5650177 C2.03882744 578.62754951 2.03882744 578.62754951 2.86010742 577.67114258 C3.39101486 577.05322342 3.9219223 576.43530426 4.46891785 575.79866028 C6.45849318 573.46137869 8.38671779 571.0775009 10.3125 568.6875 C13.99318764 564.16833076 17.82848062 559.83374657 21.75390625 555.52734375 C24.06187598 552.93037607 26.25555863 550.26595987 28.4375 547.5625 C32.29708603 542.79003797 36.37199991 538.26890891 40.52734375 533.75390625 C43.74709519 530.16792716 46.75905176 526.43298508 49.78515625 522.68359375 C52.66480887 519.19449084 55.70693876 515.87003079 58.75390625 512.52734375 C61.06187598 509.93037607 63.25555863 507.26595987 65.4375 504.5625 C69.29708603 499.79003797 73.37199991 495.26890891 77.52734375 490.75390625 C80.74709519 487.16792716 83.75905176 483.43298508 86.78515625 479.68359375 C88.95632827 477.05291443 91.20241357 474.52057576 93.5 472 C96.61458668 468.58260628 99.5918662 465.0947765 102.5 461.5 C106.11149134 457.03579543 109.88660694 452.76997886 113.75390625 448.52734375 C116.06187598 445.93037607 118.25555863 443.26595987 120.4375 440.5625 C124.29708603 435.79003797 128.37199991 431.26890891 132.52734375 426.75390625 C135.74709519 423.16792716 138.75905176 419.43298508 141.78515625 415.68359375 C143.95632827 413.05291443 146.20241357 410.52057576 148.5 408 C151.61458668 404.58260628 154.5918662 401.0947765 157.5 397.5 C161.11149134 393.03579543 164.88660694 388.76997886 168.75390625 384.52734375 C171.06187598 381.93037607 173.25555863 379.26595987 175.4375 376.5625 C179.29708603 371.79003797 183.37199991 367.26890891 187.52734375 362.75390625 C190.74709519 359.16792716 193.75905176 355.43298508 196.78515625 351.68359375 C199.6560186 348.20514149 202.68804656 344.89029982 205.7265625 341.55859375 C208.9593237 337.92034876 212.00813104 334.14220237 215.0546875 330.34765625 C217 328 217 328 218.8203125 326.49609375 C220.23129014 325.02562453 220.23129014 325.02562453 219.9921875 322.76953125 C218.62310517 318.94795891 216.48284864 315.96924035 214.125 312.6875 C213.11696827 311.25406039 212.10916199 309.82046222 211.1015625 308.38671875 C210.5849707 307.65759277 210.06837891 306.9284668 209.53613281 306.17724609 C207.15831335 302.8070309 204.83039929 299.4030894 202.5 296 C201.58360315 294.66648121 200.66693565 293.33314837 199.75 292 C197.91666667 289.33333333 196.08333333 286.66666667 194.25 284 C193.79641113 283.3402417 193.34282227 282.6804834 192.87548828 282.00073242 C191.95716639 280.66497667 191.0388722 279.32920188 190.12060547 277.9934082 C187.85448843 274.69698255 185.58791941 271.40086973 183.3203125 268.10546875 C177.81331881 260.10111746 172.32049791 252.08721186 166.83642578 244.06713867 C163.39802782 239.03986892 159.95267026 234.01747695 156.5 229 C152.49041262 223.17320197 148.49239097 217.33859348 144.5 211.5 C139.1264979 203.64210292 133.73910984 195.79388899 128.34277344 187.95166016 C126.06091481 184.63508236 123.78054245 181.3174829 121.5 178 C120.58334024 176.66666192 119.66667358 175.33332858 118.75 174 C102.25 150 85.75 126 69.25 102 C68.79641113 101.3402417 68.34282227 100.6804834 67.87548828 100.00073242 C66.95716639 98.66497667 66.0388722 97.32920188 65.12060547 95.9934082 C62.85448843 92.69698255 60.58791941 89.40086973 58.3203125 86.10546875 C52.81481536 78.10329267 47.32365612 70.09145005 41.84082031 62.07373047 C36.57384816 54.37332341 31.28880755 46.68541947 26 39 C23.30450588 35.08304843 20.60968434 31.16564317 17.91796875 27.24609375 C15.77887623 24.1312488 13.63425135 21.0202663 11.48828125 17.91015625 C10.30459035 16.19017102 9.12099505 14.47011999 7.9375 12.75 C7.37691895 11.93942139 6.81633789 11.12884277 6.23876953 10.29370117 C5.45348877 9.15058472 5.45348877 9.15058472 4.65234375 7.984375 C4.18820068 7.31116211 3.72405762 6.63794922 3.24584961 5.94433594 C2.01061361 4.01656414 1.00801069 2.05341751 0 0 Z " fill="#FDFDFD" transform="translate(228,220)"/>
<path d="M0 0 C9.91824892 -0.20884789 19.83597209 -0.36860245 29.75597477 -0.46630955 C34.3627666 -0.51321395 38.96805064 -0.57678984 43.57397461 -0.67895508 C48.02208107 -0.77699833 52.46874095 -0.8306084 56.91784477 -0.85389519 C58.6120627 -0.87048122 60.30620439 -0.90287365 61.99980354 -0.95157051 C75.24259777 -1.31708179 75.24259777 -1.31708179 79.5091095 1.88044739 C81.31800903 4.17032788 82.6756624 6.40546346 84 9 C84.67361572 9.92917236 85.34723145 10.85834473 86.04125977 11.81567383 C86.58580811 12.60482178 87.13035645 13.39396973 87.69140625 14.20703125 C88.31853516 15.11259766 88.94566406 16.01816406 89.59179688 16.95117188 C90.56729492 18.3675293 90.56729492 18.3675293 91.5625 19.8125 C92.98019545 21.86086627 94.39816909 23.90904001 95.81640625 25.95703125 C96.52039551 26.97490723 97.22438477 27.9927832 97.94970703 29.04150391 C100.95082172 33.37200018 103.97438984 37.68659954 107 42 C112.01542434 49.15598825 117.01247807 56.32453881 122 63.5 C128.74067513 73.19689875 135.50481404 82.87709203 142.28222656 92.54833984 C145.77500481 97.53334256 149.2646291 102.52055381 152.75488281 107.50732422 C155.64548192 111.63709659 158.53676689 115.7663847 161.4296875 119.89453125 C168.31728062 129.72500507 175.18294378 139.57042296 182.03417969 149.42626953 C188.09800618 158.14686679 194.18658311 166.84996444 200.28222656 175.54833984 C203.77500481 180.53334256 207.2646291 185.52055381 210.75488281 190.50732422 C213.64548192 194.63709659 216.53676689 198.7663847 219.4296875 202.89453125 C226.31728062 212.72500507 233.18294378 222.57042296 240.03417969 232.42626953 C246.66767434 241.96612614 253.33130803 251.48472922 260 261 C268.03231509 272.46096617 276.04582061 283.93461424 284.03417969 295.42626953 C290.09800618 304.14686679 296.18658311 312.84996444 302.28222656 321.54833984 C305.1896209 325.69786428 308.09468001 329.84902306 311 334 C312.16665575 335.66667431 313.33332241 337.33334098 314.5 339 C316.83333333 342.33333333 319.16666667 345.66666667 321.5 349 C322.07733887 349.8247583 322.65467773 350.6495166 323.24951172 351.49926758 C324.41784967 353.16834507 325.58614384 354.83745322 326.75439453 356.5065918 C329.64513489 360.63662338 332.53659854 364.76614446 335.4296875 368.89453125 C341.67865895 377.81364685 347.91103184 386.74395603 354.125 395.6875 C358.72592353 402.30891466 363.34082594 408.91943486 368 415.5 C373.35546831 423.06400333 378.64960949 430.66989245 383.9375 438.28125 C388.27918298 444.52964167 392.63303891 450.76925217 397 457 C404.69377044 467.98117887 412.35553496 478.98444792 420 490 C420.58604004 490.84336914 421.17208008 491.68673828 421.77587891 492.55566406 C423.3531701 494.82700003 424.92723343 497.10052955 426.5 499.375 C426.96301514 500.04112305 427.42603027 500.70724609 427.90307617 501.39355469 C431 505.88478807 431 505.88478807 431 507 C421.16917795 507.39564146 411.34027548 507.69678281 401.50308609 507.88080692 C396.93358639 507.96918685 392.36956653 508.0887632 387.80322266 508.2824707 C355.79429703 509.6049838 355.79429703 509.6049838 349.11083984 503.48510742 C346.29019628 499.98993512 344.44772837 496.24776455 342.83959961 492.07131958 C341.70898867 489.28206556 340.07818279 487.0512167 338.2578125 484.66796875 C337.21318892 483.17472588 336.16891295 481.68123976 335.125 480.1875 C333.94011372 478.4934829 332.7552176 476.79947269 331.5703125 475.10546875 C330.98024414 474.26161621 330.39017578 473.41776367 329.78222656 472.54833984 C327.43786716 469.19622705 325.09205196 465.84513462 322.74609375 462.49414062 C320.99461646 459.99231009 319.24340242 457.49029544 317.4921875 454.98828125 C315.1858122 451.69336752 312.87845381 448.39914558 310.5703125 445.10546875 C303.68271938 435.27499493 296.81705622 425.42957704 289.96582031 415.57373047 C283.33232566 406.03387386 276.66869197 396.51527078 270 387 C261.96768491 375.53903383 253.95417939 364.06538576 245.96582031 352.57373047 C239.90199382 343.85313321 233.81341689 335.15003556 227.71777344 326.45166016 C224.22499519 321.46665744 220.7353709 316.47944619 217.24511719 311.49267578 C214.35451808 307.36290341 211.46323311 303.2336153 208.5703125 299.10546875 C201.68271938 289.27499493 194.81705622 279.42957704 187.96582031 269.57373047 C181.90199382 260.85313321 175.81341689 252.15003556 169.71777344 243.45166016 C166.22499519 238.46665744 162.7353709 233.47944619 159.24511719 228.49267578 C156.35451808 224.36290341 153.46323311 220.2336153 150.5703125 216.10546875 C143.68271938 206.27499493 136.81705622 196.42957704 129.96582031 186.57373047 C123.90199382 177.85313321 117.81341689 169.15003556 111.71777344 160.45166016 C108.22499519 155.46665744 104.7353709 150.47944619 101.24511719 145.49267578 C98.35451808 141.36290341 95.46323311 137.2336153 92.5703125 133.10546875 C85.68271938 123.27499493 78.81705622 113.42957704 71.96582031 103.57373047 C65.90199382 94.85313321 59.81341689 86.15003556 53.71777344 77.45166016 C50.8103791 73.30213572 47.90531999 69.15097694 45 65 C43.83334425 63.33332569 42.66667759 61.66665902 41.5 60 C34.5 50 34.5 50 32.74902344 47.49853516 C31.58569942 45.83669009 30.42228836 44.17490595 29.25878906 42.51318359 C26.29025284 38.27324908 23.32337056 34.03217272 20.359375 29.7890625 C19.15634009 28.06764537 17.95321622 26.3462904 16.75 24.625 C16.17233887 23.79830811 15.59467773 22.97161621 14.99951172 22.11987305 C10.99349982 16.39561025 6.94908817 10.70019183 2.84277344 5.04736328 C0 1.10740027 0 1.10740027 0 0 Z " fill="#010101" transform="translate(296,258)"/>
</svg>
